<?xml version="1.0" encoding="utf-8"?>
<svg viewBox="0 0 1066.6667 1066.6667" xmlns="http://www.w3.org/2000/svg">
  <defs>
    <clipPath clipPathUnits="userSpaceOnUse" id="clipPath88">
      <path d="m 3425.42,4587.68 -95.26,448.05 c 0,0 763.23,10.58 1005.46,0 0,0 349.29,-105.84 931.4,-539.78 l -1841.6,91.73" id="path86"/>
    </clipPath>
    <clipPath clipPathUnits="userSpaceOnUse" id="clipPath108">
      <path d="m 3252.55,5032.06 35.28,-443.35 -1673.45,43.51 329.28,305.76 c 0,0 851.47,86.79 1308.89,94.08" id="path106"/>
    </clipPath>
  </defs>
  <g id="g8" transform="matrix(1.3333332538604736, 0, 0, -1.3333332538604736, 1.1368683772161603e-13, 1066.6667639414482)">
    <g id="g10" transform="scale(0.1)">
      <path d="m 1311.43,3072.05 5510.9,12.82 103.13,132.01 -180.19,483.69 -651.4,237.58 H 1593.73 l -519.93,-453.14 237.63,-412.96" style="fill:#18191e;fill-opacity:1;fill-rule:nonzero;stroke:none" id="path12"/>
      <path d="m 7234.17,3810.18 -63.61,85.18 -115.84,199.89 c 0,0 -60.19,81.77 -135.15,114.71 0,0 -562.21,156.73 -1308.4,201.03 l -1071.01,659.87 c 0,0 -181.73,81.79 -517.92,81.79 0,0 -1490.18,13.05 -2311.2,-139.2 -21.79,-4.03 -41.95,-14.14 -58.22,-29.22 l -524.51,-485.78 c 0,0 -152.177,-73.83 -178.322,-185.13 l -11.347,-219.21 -59.063,-46.57 v -281.67 l 17.043,-106.75 -39.746,-34.07 22.703,-156.73 c 0,0 62.891,-245.42 179.082,-343.35 l 38.58,-18.1 165.09,-34.82 h 49.1 c -3.77,28.44 -5.74,57.44 -5.74,86.88 0,362.79 294.11,656.97 656.95,656.97 362.87,0 656.94,-294.18 656.94,-656.97 0,-29.44 -1.99,-58.44 -5.74,-86.88 h 2698.62 205.92 c -3.77,28.44 -5.73,57.44 -5.73,86.88 0,362.79 294.12,656.97 656.93,656.97 362.88,0 656.94,-294.18 656.94,-656.97 0,-25.04 -1.45,-49.74 -4.19,-74.06 l 275.56,50.67 149.38,367.02 c 15.9,39.13 23.55,81.16 22.02,123.36 -2.06,56.8 -9.79,135.59 -35.12,184.26" style="fill-opacity: 1; fill-rule: nonzero; stroke: none; fill: rgb(146, 152, 157);" id="path14"/>
      <path d="m 7046.18,4106.08 c -19.13,23.32 -68.42,78.31 -126.61,103.88 0,0 -562.21,156.73 -1308.4,201.03 l -1071.01,659.87 c 0,0 -181.73,81.79 -517.92,81.79 0,0 -1490.18,13.05 -2311.2,-139.2 -21.79,-4.03 -41.95,-14.14 -58.22,-29.22 l -524.51,-485.78 c 0,0 -152.177,-73.83 -178.322,-185.13 l -0.093,-2.32 h 514.225 l 4767.47,-127.08 814.59,-77.84" style="fill-opacity: 1; fill-rule: nonzero; stroke: none; fill: rgb(166, 179, 184);" id="path16"/>
      <path d="m 4119.74,2451.12 c -1766.18,0 -3197.912,56.76 -3197.912,126.79 0,70.01 1431.732,126.79 3197.912,126.79 1766.16,0 3197.91,-56.78 3197.91,-126.79 0,-70.03 -1431.75,-126.79 -3197.91,-126.79" style="fill:#e5e5e3;fill-opacity:1;fill-rule:nonzero;stroke:none" id="path18"/>
      <path d="m 6754.26,3158.93 c 0,-322.92 -261.72,-584.67 -584.68,-584.67 -322.91,0 -584.67,261.75 -584.67,584.67 0,322.88 261.76,584.71 584.67,584.71 322.96,0 584.68,-261.83 584.68,-584.71" style="fill:#251f26;fill-opacity:1;fill-rule:nonzero;stroke:none" id="path20"/>
      <path d="m 6552.57,2775.95 c -49.75,-49.74 -107.66,-88.81 -172.16,-116.08 -66.75,-28.23 -137.69,-42.55 -210.83,-42.55 -73.14,0 -144.06,14.32 -210.81,42.55 -64.47,27.27 -122.42,66.34 -172.17,116.08 -49.75,49.75 -88.81,107.68 -116.08,172.17 -28.24,66.75 -42.54,137.68 -42.54,210.81 0,73.15 14.3,144.07 42.54,210.8 27.27,64.49 66.33,122.43 116.08,172.19 49.75,49.75 107.7,88.82 172.17,116.1 66.75,28.23 137.67,42.55 210.81,42.55 73.14,0 144.08,-14.32 210.83,-42.55 64.5,-27.28 122.41,-66.35 172.16,-116.1 49.75,-49.76 88.82,-107.69 116.09,-172.17 28.22,-66.75 42.52,-137.67 42.52,-210.82 0,-73.14 -14.3,-144.07 -42.52,-210.81 -27.27,-64.49 -66.34,-122.42 -116.09,-172.17 z m -382.99,967.69 c -322.91,0 -584.67,-261.83 -584.67,-584.71 0,-322.92 261.76,-584.67 584.67,-584.67 322.96,0 584.68,261.75 584.68,584.67 0,322.88 -261.72,584.71 -584.68,584.71" style="fill:#39303e;fill-opacity:1;fill-rule:nonzero;stroke:none" id="path22"/>
      <path d="m 6566.75,3158.94 c 0,-53.64 -10.5,-105.65 -31.19,-154.59 -20.01,-47.28 -48.65,-89.77 -85.14,-126.26 -36.48,-36.48 -78.96,-65.13 -126.24,-85.14 -48.94,-20.68 -100.95,-31.18 -154.6,-31.18 -53.63,0 -105.64,10.5 -154.57,31.18 -47.3,20.01 -89.78,48.66 -126.27,85.14 -36.48,36.49 -65.14,78.98 -85.14,126.26 -20.7,48.94 -31.19,100.94 -31.19,154.59 0,53.64 10.49,105.64 31.19,154.58 20,47.28 48.66,89.76 85.14,126.26 36.49,36.49 78.97,65.14 126.27,85.15 48.93,20.7 100.94,31.19 154.57,31.19 53.65,0 105.66,-10.49 154.6,-31.19 47.28,-20.01 89.76,-48.66 126.24,-85.15 36.49,-36.48 65.13,-78.97 85.14,-126.26 20.69,-48.94 31.19,-100.94 31.19,-154.58 z m -397.17,456.17 c -251.54,0 -456.15,-204.64 -456.15,-456.17 0,-251.52 204.61,-456.16 456.15,-456.16 251.5,0 456.17,204.64 456.17,456.16 0,251.53 -204.67,456.17 -456.17,456.17" style="fill:#39303e;fill-opacity:1;fill-rule:nonzero;stroke:none" id="path24"/>
      <path d="m 6566.59,3158.98 c -0.55,-219.25 -178.74,-397.01 -398,-397.01 -219.27,0 -396.57,177.76 -396.01,397.01 0.54,219.27 178.73,397.01 397.98,397.01 219.25,0 396.58,-177.74 396.03,-397.01" style="fill:#d2d2d1;fill-opacity:1;fill-rule:nonzero;stroke:none" id="path26"/>
      <path d="m 6495.6,3158.98 c -0.45,-180.05 -146.77,-326.02 -326.82,-326.02 -180.06,0 -325.66,145.97 -325.22,326.02 0.45,180.06 146.77,326.02 326.82,326.02 180.07,0 325.66,-145.96 325.22,-326.02" style="fill:#251f26;fill-opacity:1;fill-rule:nonzero;stroke:none" id="path28"/>
      <path d="m 6495.52,3124.77 0.16,68.46 h -116.67 c -2.26,14.11 -5.9,27.76 -10.81,40.8 l 101.17,58.32 -34.09,59.3 -101.19,-58.34 c -8.92,10.91 -18.9,20.91 -29.78,29.85 l 58.58,101.05 -59.19,34.22 -58.59,-101.01 c -13.02,4.94 -26.65,8.62 -40.78,10.91 l 0.3,116.68 h -68.47 l -0.29,-116.68 c -14.13,-2.29 -27.79,-5.97 -40.84,-10.91 l -58.08,101.01 -59.36,-34.22 58.06,-101.05 c -10.9,-8.94 -20.94,-18.94 -29.92,-29.85 l -100.89,58.34 -34.38,-59.3 100.88,-58.32 c -4.95,-13.04 -8.69,-26.69 -11.01,-40.8 h -116.67 l -0.18,-68.46 h 116.68 c 2.25,-14.13 5.88,-27.77 10.81,-40.82 l -101.17,-58.33 34.08,-59.3 101.19,58.34 c 8.9,-10.91 18.89,-20.91 29.78,-29.86 l -58.59,-101.04 59.21,-34.22 58.57,101.02 c 13.02,-4.94 26.65,-8.63 40.79,-10.92 l -0.3,-116.68 H 6203 l 0.28,116.68 c 14.13,2.29 27.79,5.98 40.86,10.92 l 58.06,-101.02 59.39,34.22 -58.11,101.04 c 10.95,8.95 20.96,18.95 29.94,29.86 l 100.91,-58.34 34.37,59.3 -100.87,58.33 c 4.96,13.05 8.69,26.69 11.01,40.82 h 116.68" style="fill:#a2a5a7;fill-opacity:1;fill-rule:nonzero;stroke:none" id="path30"/>
      <path d="m 6269.27,3158.98 c -0.14,-55.04 -44.88,-99.67 -99.92,-99.67 -55.06,0 -99.56,44.63 -99.43,99.67 0.11,55.05 44.87,99.68 99.89,99.68 55.08,0 99.58,-44.63 99.46,-99.68" style="fill:#251f26;fill-opacity:1;fill-rule:nonzero;stroke:none" id="path32"/>
      <path d="m 6169.58,3300.02 c -77.78,0 -141.09,-63.28 -141.09,-141.08 0,-77.78 63.31,-141.07 141.09,-141.07 77.81,0 141.09,63.29 141.09,141.07 0,77.8 -63.28,141.08 -141.09,141.08 z m 0,-299.22 c -87.19,0 -158.14,70.95 -158.14,158.14 0,87.21 70.95,158.15 158.14,158.15 87.2,0 158.14,-70.94 158.14,-158.15 0,-87.19 -70.94,-158.14 -158.14,-158.14" style="fill:#d2d2d1;fill-opacity:1;fill-rule:nonzero;stroke:none" id="path34"/>
      <path d="m 6227.49,3158.98 c -0.1,-31.96 -26.09,-57.89 -58.06,-57.89 -31.97,0 -57.82,25.93 -57.73,57.89 0.05,31.97 26.04,57.9 58.02,57.9 31.99,0 57.83,-25.93 57.77,-57.9" style="fill:#cacccc;fill-opacity:1;fill-rule:nonzero;stroke:none" id="path36"/>
      <path d="m 6350.14,3158.94 c 0,-24.37 -4.77,-48.02 -14.2,-70.27 -9.09,-21.49 -22.1,-40.8 -38.67,-57.39 -16.6,-16.59 -35.91,-29.61 -57.42,-38.71 -22.23,-9.41 -45.89,-14.18 -70.27,-14.18 -24.37,0 -48.01,4.77 -70.26,14.18 -21.5,9.1 -40.83,22.12 -57.4,38.71 -16.59,16.59 -29.63,35.9 -38.69,57.39 -9.43,22.25 -14.22,45.88 -14.22,70.27 0,24.39 4.79,48.03 14.22,70.27 9.06,21.51 22.1,40.8 38.69,57.4 16.57,16.59 35.9,29.62 57.4,38.71 22.25,9.42 45.89,14.18 70.26,14.18 24.38,0 48.04,-4.76 70.27,-14.18 21.51,-9.09 40.82,-22.12 57.42,-38.71 16.57,-16.6 29.58,-35.89 38.68,-57.4 9.42,-22.24 14.19,-45.88 14.19,-70.27 z m -180.56,207.37 c -114.34,0 -207.35,-93.02 -207.35,-207.37 0,-114.35 93.01,-207.35 207.35,-207.35 114.34,0 207.36,93 207.36,207.35 0,114.35 -93.02,207.37 -207.36,207.37" style="fill:#d2d2d1;fill-opacity:1;fill-rule:nonzero;stroke:none" id="path38"/>
      <path d="m 6490.77,3158.94 c 0,-43.38 -8.49,-85.44 -25.21,-125.01 -16.19,-38.25 -39.35,-72.6 -68.85,-102.11 -29.51,-29.52 -63.87,-52.67 -102.1,-68.85 -39.59,-16.74 -81.65,-25.22 -125.03,-25.22 -43.37,0 -85.44,8.48 -125.01,25.22 -38.24,16.18 -72.59,39.33 -102.11,68.85 -29.5,29.51 -52.67,63.86 -68.86,102.11 -16.72,39.57 -25.21,81.63 -25.21,125.01 0,43.37 8.49,85.44 25.21,125.01 16.19,38.24 39.36,72.6 68.86,102.11 29.52,29.51 63.87,52.68 102.11,68.86 39.57,16.74 81.64,25.22 125.01,25.22 43.38,0 85.44,-8.48 125.03,-25.22 38.23,-16.17 72.59,-39.34 102.1,-68.85 29.5,-29.52 52.66,-63.88 68.85,-102.12 16.72,-39.57 25.21,-81.64 25.21,-125.01 z m -321.19,368.92 c -203.41,0 -368.9,-165.5 -368.9,-368.92 0,-203.42 165.49,-368.9 368.9,-368.9 203.42,0 368.9,165.48 368.9,368.9 0,203.42 -165.48,368.92 -368.9,368.92" style="fill:#d2d2d1;fill-opacity:1;fill-rule:nonzero;stroke:none" id="path40"/>
      <path d="m 2547.31,3158.93 c 0,-322.92 -261.71,-584.67 -584.67,-584.67 -322.92,0 -584.68,261.75 -584.68,584.67 0,322.88 261.76,584.71 584.68,584.71 322.96,0 584.67,-261.83 584.67,-584.71" style="fill:#251f26;fill-opacity:1;fill-rule:nonzero;stroke:none" id="path42"/>
      <path d="m 2345.63,2775.95 c -49.76,-49.74 -107.67,-88.81 -172.17,-116.08 -66.75,-28.23 -137.69,-42.55 -210.82,-42.55 -73.14,0 -144.08,14.32 -210.81,42.55 -64.5,27.27 -122.43,66.34 -172.17,116.08 -49.75,49.75 -88.83,107.68 -116.11,172.17 -28.22,66.75 -42.52,137.68 -42.52,210.81 0,73.15 14.3,144.07 42.52,210.8 27.28,64.49 66.36,122.43 116.11,172.19 49.74,49.75 107.67,88.82 172.17,116.1 66.73,28.23 137.67,42.55 210.81,42.55 73.13,0 144.07,-14.32 210.82,-42.55 64.48,-27.28 122.41,-66.35 172.14,-116.1 49.78,-49.76 88.83,-107.69 116.11,-172.17 28.22,-66.75 42.54,-137.67 42.54,-210.82 0,-73.14 -14.32,-144.07 -42.54,-210.81 -27.28,-64.49 -66.33,-122.42 -116.08,-172.17 z m -382.99,967.69 c -322.92,0 -584.68,-261.83 -584.68,-584.71 0,-322.92 261.76,-584.67 584.68,-584.67 322.96,0 584.67,261.75 584.67,584.67 0,322.88 -261.71,584.71 -584.67,584.71" style="fill:#39303e;fill-opacity:1;fill-rule:nonzero;stroke:none" id="path44"/>
      <path d="m 2359.8,3158.94 c 0,-53.64 -10.51,-105.65 -31.2,-154.59 -19.98,-47.28 -48.63,-89.77 -85.09,-126.26 -36.51,-36.48 -78.99,-65.13 -126.28,-85.14 -48.94,-20.68 -100.97,-31.18 -154.59,-31.18 -53.65,0 -105.64,10.5 -154.6,31.18 -47.28,20.01 -89.76,48.66 -126.24,85.14 -36.48,36.49 -65.14,78.98 -85.14,126.26 -20.69,48.94 -31.19,100.94 -31.19,154.59 0,53.64 10.5,105.64 31.19,154.58 20,47.28 48.66,89.76 85.14,126.26 36.49,36.49 78.97,65.14 126.24,85.15 48.96,20.7 100.95,31.19 154.6,31.19 53.62,0 105.65,-10.49 154.59,-31.19 47.27,-20.01 89.77,-48.66 126.28,-85.15 36.46,-36.48 65.09,-78.97 85.09,-126.26 20.69,-48.94 31.2,-100.94 31.2,-154.58 z m -397.16,456.17 c -251.54,0 -456.16,-204.64 -456.16,-456.17 0,-251.52 204.62,-456.16 456.16,-456.16 251.51,0 456.15,204.64 456.15,456.16 0,251.53 -204.64,456.17 -456.15,456.17" style="fill:#39303e;fill-opacity:1;fill-rule:nonzero;stroke:none" id="path46"/>
      <path d="m 2359.64,3158.98 c -0.55,-219.25 -178.73,-397.01 -397.98,-397.01 -219.27,0 -396.59,177.76 -396.03,397.01 0.54,219.27 178.73,397.01 397.99,397.01 219.27,0 396.55,-177.74 396.02,-397.01" style="fill:#d2d2d1;fill-opacity:1;fill-rule:nonzero;stroke:none" id="path48"/>
      <path d="m 2288.66,3158.98 c -0.46,-180.05 -146.78,-326.02 -326.82,-326.02 -180.09,0 -325.67,145.97 -325.23,326.02 0.45,180.06 146.78,326.02 326.82,326.02 180.08,0 325.66,-145.96 325.23,-326.02" style="fill:#251f26;fill-opacity:1;fill-rule:nonzero;stroke:none" id="path50"/>
      <path d="m 2288.56,3124.77 0.18,68.46 h -116.68 c -2.26,14.11 -5.92,27.76 -10.81,40.8 l 101.16,58.32 -34.07,59.3 -101.19,-58.34 c -8.92,10.91 -18.9,20.91 -29.79,29.85 l 58.58,101.05 -59.19,34.22 -58.58,-101.01 c -13.04,4.94 -26.68,8.62 -40.78,10.91 l 0.29,116.68 h -68.46 l -0.3,-116.68 c -14.13,-2.29 -27.79,-5.97 -40.84,-10.91 l -58.09,101.01 -59.35,-34.22 58.08,-101.05 c -10.94,-8.94 -20.96,-18.94 -29.93,-29.85 l -100.9,58.34 -34.37,-59.3 100.86,-58.32 c -4.98,-13.04 -8.69,-26.69 -11.03,-40.8 H 1636.7 l -0.17,-68.46 h 116.67 c 2.26,-14.13 5.89,-27.77 10.8,-40.82 l -101.16,-58.33 34.08,-59.3 101.21,58.34 c 8.92,-10.91 18.89,-20.91 29.77,-29.86 l -58.58,-101.04 59.2,-34.22 58.57,101.02 c 13.04,-4.94 26.68,-8.63 40.8,-10.92 l -0.3,-116.68 h 68.45 l 0.31,116.68 c 14.12,2.29 27.78,5.98 40.83,10.92 l 58.08,-101.02 59.38,34.22 -58.11,101.04 c 10.95,8.95 20.97,18.95 29.94,29.86 l 100.92,-58.34 34.36,59.3 -100.88,58.33 c 4.99,13.05 8.7,26.69 11.01,40.82 h 116.68" style="fill:#a2a5a7;fill-opacity:1;fill-rule:nonzero;stroke:none" id="path52"/>
      <path d="m 2062.29,3158.98 c -0.11,-55.04 -44.85,-99.67 -99.9,-99.67 -55.07,0 -99.57,44.63 -99.42,99.67 0.14,55.05 44.86,99.68 99.89,99.68 55.08,0 99.58,-44.63 99.43,-99.68" style="fill:#251f26;fill-opacity:1;fill-rule:nonzero;stroke:none" id="path54"/>
      <path d="m 1962.64,3300.02 c -77.81,0 -141.07,-63.28 -141.07,-141.08 0,-77.78 63.26,-141.07 141.07,-141.07 77.78,0 141.06,63.29 141.06,141.07 0,77.8 -63.28,141.08 -141.06,141.08 z m 0,-299.22 c -87.19,0 -158.14,70.95 -158.14,158.14 0,87.21 70.95,158.15 158.14,158.15 87.19,0 158.13,-70.94 158.13,-158.15 0,-87.19 -70.94,-158.14 -158.13,-158.14" style="fill:#d2d2d1;fill-opacity:1;fill-rule:nonzero;stroke:none" id="path56"/>
      <path d="m 2020.51,3158.98 c -0.06,-31.96 -26.03,-57.89 -58.02,-57.89 -31.97,0 -57.82,25.93 -57.75,57.89 0.08,31.97 26.05,57.9 58.02,57.9 31.99,0 57.84,-25.93 57.75,-57.9" style="fill:#cacccc;fill-opacity:1;fill-rule:nonzero;stroke:none" id="path58"/>
      <path d="m 2143.17,3158.94 c 0,-24.37 -4.78,-48.02 -14.18,-70.27 -9.07,-21.49 -22.11,-40.8 -38.69,-57.39 -16.6,-16.59 -35.9,-29.61 -57.4,-38.71 -22.23,-9.41 -45.88,-14.18 -70.26,-14.18 -24.39,0 -48.03,4.77 -70.28,14.18 -21.5,9.1 -40.79,22.12 -57.38,38.71 -16.59,16.59 -29.64,35.9 -38.72,57.39 -9.41,22.25 -14.17,45.88 -14.17,70.27 0,24.39 4.76,48.03 14.17,70.27 9.08,21.51 22.13,40.8 38.72,57.4 16.59,16.59 35.88,29.62 57.38,38.71 22.25,9.42 45.89,14.18 70.28,14.18 24.38,0 48.03,-4.76 70.26,-14.18 21.5,-9.09 40.8,-22.12 57.4,-38.71 16.58,-16.6 29.62,-35.89 38.69,-57.4 9.4,-22.24 14.18,-45.88 14.18,-70.27 z m -180.53,207.37 c -114.33,0 -207.37,-93.02 -207.37,-207.37 0,-114.35 93.04,-207.35 207.37,-207.35 114.34,0 207.35,93 207.35,207.35 0,114.35 -93.01,207.37 -207.35,207.37" style="fill:#d2d2d1;fill-opacity:1;fill-rule:nonzero;stroke:none" id="path60"/>
      <path d="m 2283.84,3158.94 c 0,-43.38 -8.51,-85.44 -25.24,-125.01 -16.19,-38.25 -39.33,-72.6 -68.84,-102.11 -29.5,-29.52 -63.85,-52.67 -102.1,-68.85 -39.58,-16.74 -81.63,-25.22 -125.02,-25.22 -43.37,0 -85.44,8.48 -125.02,25.22 -38.25,16.18 -72.6,39.33 -102.1,68.85 -29.52,29.51 -52.67,63.86 -68.85,102.11 -16.74,39.57 -25.23,81.63 -25.23,125.01 0,43.37 8.49,85.44 25.23,125.01 16.18,38.24 39.33,72.6 68.85,102.11 29.51,29.51 63.86,52.68 102.12,68.86 39.56,16.74 81.63,25.22 125,25.22 43.37,0 85.44,-8.48 125.02,-25.22 38.24,-16.17 72.58,-39.34 102.1,-68.85 29.51,-29.52 52.65,-63.88 68.84,-102.12 16.73,-39.57 25.24,-81.64 25.24,-125.01 z m -321.2,368.92 c -203.42,0 -368.91,-165.5 -368.91,-368.92 0,-203.42 165.49,-368.9 368.91,-368.9 203.4,0 368.89,165.48 368.89,368.9 0,203.42 -165.49,368.92 -368.89,368.92" style="fill:#d2d2d1;fill-opacity:1;fill-rule:nonzero;stroke:none" id="path62"/>
      <path d="m 6169.58,3918.95 c 399.85,0 727.26,-309.61 755.88,-702.07 1.34,18.45 2.05,37.09 2.05,55.89 0,418.56 -339.28,757.97 -757.93,757.97 -418.59,0 -757.92,-339.41 -757.92,-757.97 0,-18.8 0.71,-37.44 2.04,-55.89 28.63,392.46 356.08,702.07 755.88,702.07" style="fill-opacity: 1; fill-rule: nonzero; stroke: none; fill: rgb(166, 179, 184);" id="path64"/>
      <path d="m 1962.64,3918.95 c 399.83,0 727.27,-309.61 755.88,-702.07 1.33,18.45 2.03,37.09 2.03,55.89 0,418.56 -339.26,757.97 -757.91,757.97 -418.6,0 -757.94,-339.41 -757.94,-757.97 0,-18.8 0.72,-37.44 2.05,-55.89 28.62,392.46 356.11,702.07 755.89,702.07" style="fill-opacity: 1; fill-rule: nonzero; stroke: none; fill: rgb(166, 179, 184);" id="path66"/>
      <path d="m 2612.02,3258.66 c 4.98,-32.51 7.56,-65.82 7.56,-99.73 0,-29.44 -1.99,-58.44 -5.74,-86.88 h 2698.62 205.92 c -3.77,28.44 -5.73,57.44 -5.73,86.88 0,33.91 2.57,67.22 7.54,99.73 H 2612.02" style="fill:#2f3743;fill-opacity:1;fill-rule:nonzero;stroke:none" id="path68"/>
      <path d="m 960.02,3258.66 c 26.64,-51.27 59.62,-100.8 98.64,-133.69 l 38.58,-18.1 165.09,-34.82 h 49.1 c -3.77,28.44 -5.74,57.44 -5.74,86.88 0,33.91 2.59,67.22 7.54,99.73 H 960.02" style="fill:#2f3743;fill-opacity:1;fill-rule:nonzero;stroke:none" id="path70"/>
      <path d="m 6818.99,3258.66 c 4.95,-32.51 7.53,-65.82 7.53,-99.73 0,-25.04 -1.45,-49.74 -4.19,-74.06 l 275.56,50.67 50.1,123.12 h -329" style="fill:#2f3743;fill-opacity:1;fill-rule:nonzero;stroke:none" id="path72"/>
      <path d="m 4022.24,5152.65 c 0,0 -1487.52,13.03 -2308.99,-138.78 -23.24,-4.3 -44.76,-15.07 -62.15,-31.09 l -437.33,-403 4397.4,-168.79 -1071.01,659.87 c 0,0 -181.73,81.79 -517.92,81.79" style="fill:#2f3743;fill-opacity:1;fill-rule:nonzero;stroke:none" id="path74"/>
      <path d="m 949.895,4311 -11.25,-216.89 -13.313,-10.49 c 108.128,1.35 237.178,8.31 237.178,8.31 178.31,14.22 292.12,176.4 292.12,176.4 22.76,24.65 9.49,42.67 9.49,42.67 H 949.895" style="fill:#a31b24;fill-opacity:1;fill-rule:nonzero;stroke:none" id="path76"/>
      <path d="m 5997.55,4181.32 -767.59,43.55 c -15.26,0.86 -22.2,-18.68 -9.9,-27.75 55,-40.48 102.77,-54.26 102.77,-54.26 l 442.97,-30 c 102.27,-4.73 188.53,25.08 235.87,46.2 11.18,4.97 8.09,21.57 -4.12,22.26" style="fill:#2f3743;fill-opacity:1;fill-rule:nonzero;stroke:none" id="path78"/>
      <path d="m 3425.42,4587.68 -95.25,448.05 c 0,0 763.22,10.58 1005.45,0 0,0 349.3,-105.84 931.4,-539.78 l -1841.6,91.73" style="fill:#2d2630;fill-opacity:1;fill-rule:nonzero;stroke:none" id="path80"/>
      <g id="g82">
        <g id="g84" clip-path="url(#clipPath88)">
          <path d="m 4642.62,4543.26 -574.57,28.62 209.63,449.57 c 20.88,-0.53 39.28,-1.13 55.14,-1.81 13.49,-4.33 99.36,-33.07 244.13,-106.15 52.08,-26.28 115.84,-60.41 189.98,-103.64 l -124.31,-266.59" style="fill:#392f3f;fill-opacity:1;fill-rule:nonzero;stroke:none" id="path90"/>
          <path d="m 3420.37,4689.28 -65.59,308.55 10.33,22.15 c 41.73,0.52 117.86,1.42 210.52,2.25 l -155.26,-332.95" style="fill:#392f3f;fill-opacity:1;fill-rule:nonzero;stroke:none" id="path92"/>
          <path d="m 4927.18,4529.09 -1.43,0.07 1.21,2.6 0.22,-2.67" style="fill:#392f3f;fill-opacity:1;fill-rule:nonzero;stroke:none" id="path94"/>
          <path d="m 3731.8,4588.63 -132.1,6.58 199.86,428.59 c 44.96,0.22 90.5,0.37 135.36,0.41 L 3731.8,4588.63" style="fill:#392f3f;fill-opacity:1;fill-rule:nonzero;stroke:none" id="path96"/>
          <path d="m 3865.64,4581.96 -85.09,4.24 204.25,438.03 c 30.61,-0.02 59.6,-0.09 86.97,-0.21 l -206.13,-442.06" style="fill:#392f3f;fill-opacity:1;fill-rule:nonzero;stroke:none" id="path98"/>
        </g>
      </g>
      <path d="m 3252.55,5032.2 35.28,-443.36 -1673.45,43.53 329.28,305.75 c 0,0 851.47,86.79 1308.89,94.08" style="fill:#2d2630;fill-opacity:1;fill-rule:nonzero;stroke:none" id="path100"/>
      <g id="g102">
        <g id="g104" clip-path="url(#clipPath108)">
          <path d="m 2996.56,4596.42 -580.86,15.11 v 0 l 580.86,-15.11 m 7.46,16.01 -580.86,15.1 163.92,351.53 c 207.13,16.07 428.47,30.56 604.49,35.57 l -187.55,-402.2" style="fill:#392f3f;fill-opacity:1;fill-rule:nonzero;stroke:none" id="path110"/>
          <path d="m 1721.7,4629.58 -107.16,2.78 v 0 l 107.16,-2.78 v 0 m 7.46,16 -74.66,1.94 133.28,123.75 -58.62,-125.69" style="fill:#392f3f;fill-opacity:1;fill-rule:nonzero;stroke:none" id="path112"/>
          <path d="m 2075.77,4620.37 -133.54,3.47 v 0 l 133.54,-3.47 v 0 m 7.46,16 -133.54,3.47 138.04,296.02 c 40.54,3.84 88.24,8.27 141.24,13.05 l -145.74,-312.54" style="fill:#392f3f;fill-opacity:1;fill-rule:nonzero;stroke:none" id="path114"/>
          <path d="m 2211.07,4616.85 -86.03,2.24 v 0 l 86.03,-2.24 v 0 m 7.47,16 -86.03,2.24 148.5,318.47 c 29.09,2.57 59.45,5.22 90.76,7.9 l -153.23,-328.61" style="fill:#392f3f;fill-opacity:1;fill-rule:nonzero;stroke:none" id="path116"/>
        </g>
      </g>
      <path d="m 3425.42,4587.68 -95.25,448.05 c 0,0 339.22,4.7 637.13,4.7 148.96,0 287.57,-1.17 368.32,-4.7 0,0 349.3,-105.84 931.4,-539.78 l -1841.6,91.73 m 1853.84,-75.35 c -301.87,225.05 -540.23,360.49 -687.02,434.49 -159.83,80.58 -247.04,107.38 -250.65,108.48 l -2.5,0.74 -2.56,0.12 c -71.73,3.13 -195.94,4.72 -369.2,4.72 v -20.45 20.45 c -294.69,0 -634.06,-4.66 -637.46,-4.71 l -24.88,-0.34 5.17,-24.35 95.26,-448.06 3.27,-15.38 15.71,-0.79 1841.61,-91.72 67.11,-3.34 -53.86,40.14" style="fill:#18191e;fill-opacity:1;fill-rule:nonzero;stroke:none" id="path118"/>
      <path d="m 1614.38,4632.37 329.28,305.75 c 0,0 851.47,86.79 1308.89,94.08 l 35.28,-443.36 -1673.45,43.53 m 1658.56,401.45 -1.54,19.12 -19.17,-0.3 c -453.05,-7.22 -1302.12,-93.31 -1310.64,-94.18 l -6.81,-0.7 -5.03,-4.65 -329.27,-305.77 -36.75,-34.12 50.11,-1.3 1673.45,-43.51 22.7,-0.59 -1.79,22.65 -35.26,443.35" style="fill:#18191e;fill-opacity:1;fill-rule:nonzero;stroke:none" id="path120"/>
      <path d="m 2038.38,5062.3 c 0,0 -261.59,28.1 -543.4,-30.1 l -20.5,-29.99 c 0,0 44.64,-19.16 256.59,-144.99 l 307.31,205.08" style="fill:#2f3743;fill-opacity:1;fill-rule:nonzero;stroke:none" id="path122"/>
      <path d="m 7170.56,3895.36 -115.84,199.89 c 0,0 -3.03,4.11 -8.54,10.83 l -814.59,77.84 c 0,0 39.7,-56.1 153.26,-112.21 l 183.36,-41.05 c 0,0 88.94,-32.83 124.51,-67.04 l 485.03,-77.89 -7.19,9.63" style="fill:#e9e9bc;fill-opacity:1;fill-rule:nonzero;stroke:none" id="path124"/>
      <path d="m 7045.16,4019.48 c 13.07,-38.46 9.4,-74.49 -8.21,-80.48 -17.6,-5.99 -42.51,20.32 -55.56,58.78 -13.11,38.44 -9.41,74.48 8.19,80.48 17.62,5.98 42.5,-20.33 55.58,-58.78" style="fill:#d6d8a3;fill-opacity:1;fill-rule:nonzero;stroke:none" id="path126"/>
      <path d="m 6950.03,4033.48 c 12.12,-35.64 8.71,-69.04 -7.62,-74.58 -16.31,-5.56 -39.38,18.83 -51.5,54.48 -12.13,35.64 -8.72,69.03 7.61,74.58 16.31,5.56 39.38,-18.83 51.51,-54.48" style="fill:#d6d8a3;fill-opacity:1;fill-rule:nonzero;stroke:none" id="path128"/>
      <path d="m 6859.12,4046.04 c 11.2,-32.94 8.04,-63.79 -7.06,-68.92 -15.06,-5.12 -36.38,17.41 -47.58,50.34 -11.2,32.93 -8.05,63.8 7.04,68.92 15.08,5.13 36.38,-17.41 47.6,-50.34" style="fill:#d6d8a3;fill-opacity:1;fill-rule:nonzero;stroke:none" id="path130"/>
      <path d="m 6771.06,4055.84 c 10.58,-31.1 7.6,-60.25 -6.64,-65.09 -14.25,-4.85 -34.39,16.44 -44.94,47.55 -10.6,31.1 -7.61,60.24 6.63,65.09 14.23,4.85 34.36,-16.45 44.95,-47.55" style="fill:#d6d8a3;fill-opacity:1;fill-rule:nonzero;stroke:none" id="path132"/>
      <path d="m 6606.16,4148.12 -374.57,35.8 c 0,0 39.7,-56.1 153.26,-112.21 l 183.36,-41.05 c 0,0 88.94,-32.83 124.51,-67.04 l 8.1,-1.3 -94.66,185.8" style="fill:#f58616;fill-opacity:1;fill-rule:nonzero;stroke:none" id="path134"/>
      <path d="m 6698.94,3976.42 c -38.83,34.61 -122.35,65.69 -126,67.03 l -0.88,0.31 -0.88,0.2 -181.75,40.7 c -62.04,30.82 -101.27,61.64 -123.4,82.27 l 773.15,-73.87 c 2.08,-2.62 3.5,-4.46 4.16,-5.34 l 106.46,-183.7 -450.86,72.4 m 471.62,-81.06 -115.84,199.89 c 0,0 -3.03,4.11 -8.54,10.83 l -814.59,77.84 c 0,0 39.7,-56.1 153.26,-112.21 l 183.36,-41.05 c 0,0 88.94,-32.83 124.51,-67.04 l 485.03,-77.89 -7.19,9.63" style="fill:#3b3b3c;fill-opacity:1;fill-rule:nonzero;stroke:none" id="path136"/>
      <path d="m 7098.61,3992.35 -48.44,8.91 c -1.25,5.93 -2.91,12.04 -5.01,18.22 -11.83,34.78 -33.32,59.63 -50.35,59.63 -1.8,0 -3.55,-0.28 -5.23,-0.85 -14.96,-5.1 -19.88,-31.92 -12.96,-63.47 l -22.45,4.13 c -1.09,4.76 -2.47,9.64 -4.14,14.56 -10.97,32.24 -30.88,55.27 -46.66,55.27 -1.67,0 -3.29,-0.25 -4.85,-0.79 -13.52,-4.59 -18.18,-28.27 -12.51,-56.5 l -23.85,4.38 c -0.86,3.36 -1.87,6.77 -3.04,10.2 -10.15,29.79 -28.54,51.07 -43.12,51.07 -1.54,0 -3.04,-0.24 -4.48,-0.73 -11.98,-4.07 -16.43,-24.33 -12.17,-48.98 l -27.17,5 c -0.35,1.14 -0.72,2.29 -1.12,3.44 -9.58,28.13 -26.96,48.24 -40.72,48.24 -1.45,0 -2.87,-0.22 -4.23,-0.69 -10.31,-3.51 -14.72,-19.75 -12.35,-40.25 l -70.95,13.06 -29.32,57.53 425.69,-40.67 c 2.08,-2.62 3.5,-4.46 4.16,-5.34 l 55.27,-95.37" style="fill:#f1f1d2;fill-opacity:1;fill-rule:nonzero;stroke:none" id="path138"/>
      <path d="m 7050.17,4001.26 -73.55,13.53 c -6.92,31.55 -2,58.37 12.96,63.47 1.68,0.57 3.43,0.85 5.23,0.85 17.03,0 38.52,-24.85 50.35,-59.63 2.1,-6.18 3.76,-12.29 5.01,-18.22" style="fill:#e3e4bf;fill-opacity:1;fill-rule:nonzero;stroke:none" id="path140"/>
      <path d="m 6954.17,4018.92 -68.16,12.54 c -5.67,28.23 -1.01,51.91 12.51,56.5 1.56,0.54 3.18,0.79 4.85,0.79 15.78,0 35.69,-23.03 46.66,-55.27 1.67,-4.92 3.05,-9.8 4.14,-14.56" style="fill:#e3e4bf;fill-opacity:1;fill-rule:nonzero;stroke:none" id="path142"/>
      <path d="m 6862.16,4035.84 -62.81,11.56 c -4.26,24.65 0.19,44.91 12.17,48.98 1.44,0.49 2.94,0.73 4.48,0.73 14.58,0 32.97,-21.28 43.12,-51.07 1.17,-3.43 2.18,-6.84 3.04,-10.2" style="fill:#e3e4bf;fill-opacity:1;fill-rule:nonzero;stroke:none" id="path144"/>
      <path d="m 6772.18,4052.4 -58.42,10.74 c -2.37,20.5 2.04,36.74 12.35,40.25 1.36,0.47 2.78,0.69 4.23,0.69 13.76,0 31.14,-20.11 40.72,-48.24 0.4,-1.15 0.77,-2.3 1.12,-3.44" style="fill:#e3e4bf;fill-opacity:1;fill-rule:nonzero;stroke:none" id="path146"/>
      <path d="m 6642.81,4076.2 -343.63,63.21 c -13.75,10.28 -24.7,19.64 -33.15,27.52 l 347.46,-33.2 29.32,-57.53" style="fill:#f6ac16;fill-opacity:1;fill-rule:nonzero;stroke:none" id="path148"/>
      <path d="m 7116.22,3989.11 -17.61,3.24 -55.27,95.37 c -0.66,0.88 -2.08,2.72 -4.16,5.34 l -425.69,40.67 -347.46,33.2 c 8.45,-7.88 19.4,-17.24 33.15,-27.52 l -28.66,5.27 c -27.66,23.33 -38.93,39.24 -38.93,39.24 v 0 l 814.59,-77.84 c 5.51,-6.72 8.54,-10.83 8.54,-10.83 l 61.5,-106.14" style="fill:#4d4e4f;fill-opacity:1;fill-rule:nonzero;stroke:none" id="path150"/>
      <path d="m 3908.84,4195.73 c -0.22,0 -0.44,0.01 -0.67,0.01 l -310.25,9.05 c -12.85,0.38 -22.91,11.85 -22.5,25.62 l 0.74,24.29 356.81,-9.51 -0.77,-25.2 c -0.42,-13.53 -10.81,-24.26 -23.36,-24.26" style="fill-opacity: 1; fill-rule: nonzero; stroke: none; fill: rgb(92, 103, 112);" id="path152"/>
      <path d="m 3932.97,4245.19 -356.81,9.51 2,65.26 c 0.43,13.54 10.83,24.27 23.39,24.27 0.21,0 0.42,-0.01 0.64,-0.01 l 310.26,-9.07 c 12.84,-0.36 22.92,-11.84 22.48,-25.61 l -1.96,-64.35" style="fill:#286886;fill-opacity:1;fill-rule:nonzero;stroke:none" id="path154"/>
      <path d="m 3599.64,4260.97 310.27,-9.06 c 12.81,-0.37 23.6,10.48 24.01,24.26 l 1.01,33.37 c 0.44,13.77 -9.64,25.25 -22.48,25.61 l -310.26,9.07 c -12.84,0.37 -23.6,-10.49 -24.03,-24.26 l -1.01,-33.38 c -0.42,-13.77 9.65,-25.24 22.49,-25.61" style="fill:#1b1f23;fill-opacity:1;fill-rule:nonzero;stroke:none" id="path156"/>
      <path d="m 947.012,4255.76 -8.367,-161.65 -13.313,-10.49 c 25.398,0.31 51.934,0.95 77.708,1.72 60.75,53.56 86.15,119.15 96.49,170.42 H 947.012" style="fill:#e9e9bc;fill-opacity:1;fill-rule:nonzero;stroke:none" id="path158"/>
      <path d="m 1444.61,4277.56 -0.62,-0.67 -0.51,-0.72 c -1.09,-1.57 -112.37,-157 -281.88,-170.65 -4.97,-0.27 -110.87,-5.86 -209.127,-7.83 l 10.359,199.67 h 491.498 c 0.05,-4.43 -1.75,-11.17 -9.72,-19.8 z m 19.51,33.44 H 949.895 l -11.25,-216.89 -13.313,-10.49 c 108.128,1.35 237.178,8.31 237.178,8.31 178.31,14.22 292.12,176.4 292.12,176.4 22.76,24.65 9.49,42.67 9.49,42.67" style="fill:#3b3b3c;fill-opacity:1;fill-rule:nonzero;stroke:none" id="path160"/>
      <path d="m 2612.02,3615.11 2741.89,-98.16 v -70.42 H 2682.02 l -70,168.58" style="fill:#317ea0;fill-opacity:1;fill-rule:nonzero;stroke:none" id="path162"/>
      <path d="m 5381.18,3800.52 h -27.27 v 229.61 l -9.8,111.28 27.5,-1.86 9.57,-108.81 v -230.22" style="fill-opacity: 1; fill-rule: nonzero; stroke: none; fill: rgb(116, 121, 123);" id="path164"/>
      <path d="m 5364.78,4217.22 -27.48,1.56 -17.77,201.68 13.59,1.2 13.73,-0.52 17.93,-203.92" style="fill-opacity: 1; fill-rule: nonzero; stroke: none; fill: rgb(116, 121, 123);" id="path166"/>
      <path d="m 5346.85,4421.14 -13.73,0.52 13.58,1.2 0.15,-1.72" style="fill:#272e37;fill-opacity:1;fill-rule:nonzero;stroke:none" id="path168"/>
      <path d="m 5371.61,4139.55 -27.5,1.86 -6.81,77.37 27.48,-1.56 6.83,-77.67" style="fill:#272e37;fill-opacity:1;fill-rule:nonzero;stroke:none" id="path170"/>
      <path d="m 3521.89,3800.52 h -28.63 c -39.02,121.43 -76.05,273.01 -103.06,459.14 l 27.66,-0.74 c 27.35,-186.79 64.82,-338.02 104.03,-458.4" style="fill-opacity: 1; fill-rule: nonzero; stroke: none; fill: rgb(116, 121, 123);" id="path172"/>
      <path d="m 3417.86,4258.92 -27.66,0.74 c -10.59,72.99 -19.63,151.26 -26.66,235.15 l 20.07,1.68 7.18,-0.27 c 7.11,-84.79 16.31,-163.8 27.07,-237.3" style="fill-opacity: 1; fill-rule: nonzero; stroke: none; fill: rgb(116, 121, 123);" id="path174"/>
      <path d="m 3390.79,4496.22 -7.18,0.27 7.1,0.6 c 0.03,-0.29 0.05,-0.58 0.08,-0.87" style="fill:#272e37;fill-opacity:1;fill-rule:nonzero;stroke:none" id="path176"/>
      <path d="m 6923.08,3707.54 c 17.22,-74.24 47.81,-218.08 56.24,-335.71 0.67,-9.46 8.61,-16.74 18.09,-16.74 h 88.24 c 10.81,0 21.13,4.27 28.7,11.96 30.19,30.61 98.48,124.8 76.14,335.59 0,0 -7.95,35.78 -33.51,43.16 l -194.51,8.99 c -25.56,1.17 -45.17,-22.34 -39.39,-47.25" style="fill:#2f3743;fill-opacity:1;fill-rule:nonzero;stroke:none" id="path178"/>
      <path d="m 5267.02,4495.95 c -131.64,98.13 -251.33,179.43 -357.81,246.58 l 19.34,-229.72 338.47,-16.86" style="fill:#2f3743;fill-opacity:1;fill-rule:nonzero;stroke:none" id="path180"/>
      <path d="m 7269.29,3625.92 c -0.84,22.97 -2.59,49.52 -6.07,76.23 3.48,-26.71 5.24,-53.27 6.07,-76.23" style="fill:#ebeceb;fill-opacity:1;fill-rule:nonzero;stroke:none" id="path182"/>
      <path d="m 6818.99,3258.66 v 0 c -40.92,268.81 -244.79,484.06 -507.68,541.86 h 0.24 c 262.81,-57.89 466.53,-273.13 507.45,-541.86" style="fill:#17181c;fill-opacity:1;fill-rule:nonzero;stroke:none" id="path184"/>
      <path d="m 7097.89,3135.54 50.1,123.12 h -220.61 c 0.08,4.69 0.13,9.4 0.13,14.11 0,205.14 -81.51,391.28 -213.9,527.75 h 525.17 c 12.32,-27.82 19.87,-63.22 24.44,-98.37 3.48,-26.71 5.23,-53.26 6.07,-76.23 v 0 c 0.12,-3.46 0.19,-6.92 0.19,-10.38 0.03,-38.7 -7.61,-77.06 -22.21,-112.98 l -149.38,-367.02 m -137.26,619.29 c -24.65,0 -43.19,-22.98 -37.55,-47.29 17.22,-74.24 47.81,-218.08 56.24,-335.71 0.67,-9.46 8.61,-16.74 18.09,-16.74 h 88.24 c 10.81,0 21.13,4.27 28.7,11.96 30.19,30.61 98.48,124.8 76.14,335.59 0,0 -7.95,35.78 -33.51,43.16 l -194.51,8.99 c -0.61,0.02 -1.23,0.04 -1.84,0.04 m -39.38,-496.17 h -102.26 c -40.91,268.73 -244.63,483.97 -507.44,541.86 h 265.01 c 185.02,-118.01 315.39,-314.13 344.69,-541.86" style="fill-opacity: 1; fill-rule: nonzero; stroke: none; fill: rgb(135, 146, 150);" id="path186"/>
      <path d="m 6927.38,3258.66 h -6.13 c -29.3,227.73 -159.67,423.85 -344.69,541.86 h 137.05 c 132.39,-136.47 213.9,-322.61 213.9,-527.75 0,-4.71 -0.05,-9.42 -0.13,-14.11" style="fill-opacity: 1; fill-rule: nonzero; stroke: none; fill: rgb(166, 179, 184);" id="path188"/>
      <path d="m 6826.52,3158.93 v 0 c 0,0.29 0,0.58 0,0.87 0,-0.29 0,-0.58 0,-0.87" style="fill:#255a84;fill-opacity:1;fill-rule:nonzero;stroke:none" id="path190"/>
      <path d="m 6826.52,3160.07 c 0,0.05 0,0.12 0,0.18 0,-0.02 0,-0.07 0,-0.09 0,-0.03 0,-0.06 0,-0.09" style="fill:#17181c;fill-opacity:1;fill-rule:nonzero;stroke:none" id="path192"/>
      <path d="m 6826.52,3160.16 c 0,0.02 0,0.07 0,0.09 0,0.13 0,0.27 0,0.41 0,-0.17 0,-0.33 0,-0.5" style="fill:#255a84;fill-opacity:1;fill-rule:nonzero;stroke:none" id="path194"/>
      <path d="m 6826.52,3161 c 0,0.11 0,0.21 0,0.32 0,-0.04 0,-0.11 0,-0.15 0,-0.06 0,-0.12 0,-0.17" style="fill:#17181c;fill-opacity:1;fill-rule:nonzero;stroke:none" id="path196"/>
      <path d="m 6826.52,3161.17 c 0,0.04 0,0.11 0,0.15 0,0.06 0,0.14 0,0.19 0,-0.11 0,-0.23 0,-0.34" style="fill:#255a84;fill-opacity:1;fill-rule:nonzero;stroke:none" id="path198"/>
      <path d="m 6826.52,3161.93 c 0,0.13 0,0.27 -0.01,0.4 v -0.04 c 0.01,-0.09 0.01,-0.18 0.01,-0.27 0,-0.05 0,-0.05 0,-0.09" style="fill:#17181c;fill-opacity:1;fill-rule:nonzero;stroke:none" id="path200"/>
      <path d="m 6826.52,3161.9 v 0.03 c 0,0.04 0,0.04 0,0.09 0,-0.04 0,-0.08 0,-0.12 m -0.01,0.39 v 0.04 0.01 c 0,-0.01 0,-0.03 0,-0.05" style="fill:#255a84;fill-opacity:1;fill-rule:nonzero;stroke:none" id="path202"/>
      <path d="m 6826.51,3162.94 c 0,0.07 0,0.15 0,0.23 0,-0.05 0,-0.1 0,-0.15 0,-0.05 0,-0.04 0,-0.08" style="fill:#17181c;fill-opacity:1;fill-rule:nonzero;stroke:none" id="path204"/>
      <path d="m 6826.51,3162.79 c 0,0.06 0,0.09 0,0.15 0,0.04 0,0.03 0,0.08 0,-0.08 0,-0.15 0,-0.23 m 0,0.87 c 0,0.09 0,0.15 0,0.25 0,-0.09 0,-0.17 0,-0.25" style="fill:#255a84;fill-opacity:1;fill-rule:nonzero;stroke:none" id="path206"/>
      <path d="m 6822.33,3084.87 c 2.74,24.32 4.19,49.02 4.19,74.06 v 0 0 0 c 0,0.29 0,0.58 0,0.87 0,0.09 0,0.17 0,0.27 0,0.03 0,0.06 0,0.09 0,0.17 0,0.33 0,0.5 0,0.11 0,0.22 0,0.34 0,0.05 0,0.11 0,0.17 0,0.11 0,0.23 0,0.34 0,0.14 0,0.25 0,0.39 0,0.04 0,0.08 0,0.12 0,0.09 0,0.18 -0.01,0.27 0,0.02 0,0.04 0,0.05 0,0.16 0,0.3 0,0.45 0,0.08 0,0.15 0,0.23 0,0.05 0,0.1 0,0.15 0,0.15 0,0.33 0,0.49 0,0.08 0,0.16 0,0.25 -0.24,32.17 -2.8,63.83 -7.51,94.75 h -0.01 102.26 6.13 220.61 l -50.1,-123.12 -275.56,-50.67" style="fill:#2b333d;fill-opacity:1;fill-rule:nonzero;stroke:none" id="path208"/>
      <path d="m 7085.65,3355.09 h -88.24 c -9.48,0 -17.42,7.28 -18.09,16.74 -8.43,117.63 -39.02,261.47 -56.24,335.71 -5.64,24.31 12.9,47.29 37.55,47.29 0.61,0 1.23,-0.02 1.84,-0.04 l 194.51,-8.99 c 25.56,-7.38 33.51,-43.16 33.51,-43.16 22.34,-210.79 -45.95,-304.98 -76.14,-335.59 -7.57,-7.69 -17.89,-11.96 -28.7,-11.96" style="fill:#2b333d;fill-opacity:1;fill-rule:nonzero;stroke:none" id="path210"/>
      <path d="m 5512.65,3160.07 c 0,0.03 0,0.06 0,0.09 0,0.02 0,0.07 0,0.09 0,-0.06 0,-0.13 0,-0.18 m -2893.07,0 c 0,0.05 0,0.12 0,0.18 0,-0.02 0,-0.07 0,-0.09 0,-0.03 0,-0.06 0,-0.09 m 2893.07,0.92 c 0,0.06 0,0.12 0,0.17 0,0.05 0,0.11 0,0.15 0,-0.09 0,-0.22 0,-0.32 M 2619.58,3161 c 0,0.11 0,0.21 0,0.32 0,-0.04 0,-0.11 0,-0.15 0,-0.06 0,-0.12 0,-0.17 m -0.01,0.93 c 0,0.13 0,0.27 0,0.4 v -0.04 c 0,-0.09 0,-0.18 0,-0.27 0,-0.05 0,-0.05 0,-0.09 m 2893.08,0 c 0,0.05 0,0.08 0,0.12 0,0.06 0.01,0.12 0.01,0.18 0,0.03 0,0.08 0,0.1 0,-0.14 -0.01,-0.26 -0.01,-0.4 m -2893.08,1.01 c 0,0.07 0,0.15 0,0.23 0,-0.05 0,-0.1 0,-0.15 0,-0.05 0,-0.04 0,-0.08 m 2893.09,0.01 c 0,0.02 0,0.07 0,0.09 0,0.05 0,0.1 0,0.15 0,-0.07 0,-0.16 0,-0.24 m 7.53,95.71 v 0 c 40.91,268.73 244.66,483.97 507.44,541.86 h 0.27 c -262.91,-57.8 -466.79,-273.05 -507.73,-541.86 m -2908.15,0 v 0 c -40.9,268.81 -244.78,484.06 -507.67,541.86 h 0.26 c 262.8,-57.89 466.53,-273.13 507.45,-541.86" style="fill:#17181c;fill-opacity:1;fill-rule:nonzero;stroke:none" id="path212"/>
      <path d="m 5512.65,3158.93 c 0,0.29 0,0.58 0,0.87 0,-0.29 0,-0.58 0,-0.87 v 0 m -2893.07,0 v 0 c 0,0.29 0,0.58 0,0.87 0,-0.29 0,-0.58 0,-0.87 m 2893.07,1.23 c 0,0.17 0,0.33 0,0.5 0,-0.13 0,-0.28 0,-0.41 0,-0.02 0,-0.07 0,-0.09 m -2893.07,0 c 0,0.02 0,0.07 0,0.09 0,0.13 0,0.27 0,0.41 0,-0.17 0,-0.33 0,-0.5 m 2893.07,1 c 0,0.12 0,0.24 0,0.35 0,-0.07 0,-0.12 0,-0.2 0,-0.04 0,-0.1 0,-0.15 m -2893.07,0.01 c 0,0.04 0,0.11 0,0.15 0,0.06 0,0.14 0,0.19 0,-0.11 0,-0.23 0,-0.34 m 2893.07,0.73 c 0,0.05 0,0.1 0,0.15 0,-0.04 0,-0.07 0,-0.12 v -0.03 m -2893.08,0 v 0.03 c 0,0.04 0,0.04 0,0.09 0,-0.04 0,-0.08 0,-0.12 m 2893.09,0.33 c 0,0.05 0,0.09 0,0.14 0,-0.02 0,-0.02 0,-0.04 0,-0.02 0,-0.07 0,-0.1 m -2893.09,0.06 v 0.04 0.01 c 0,-0.01 0,-0.03 0,-0.05 m 2893.09,0.48 c 0,0.09 0,0.18 0,0.27 0,-0.02 0,-0.07 0,-0.09 0,-0.06 0,-0.13 0,-0.18 m -2893.09,0.02 c 0,0.06 0,0.09 0,0.15 0,0.04 0,0.03 0,0.08 0,-0.08 0,-0.15 0,-0.23 m -0.01,0.87 c 0,0.07 0,0.16 0,0.24 0,-0.08 0,-0.17 0,-0.24 m 2893.1,0 c 0,0.08 0,0.17 0.01,0.25 -0.01,-0.1 -0.01,-0.15 -0.01,-0.25 m 7.53,95 h -102.28 c 29.31,227.73 159.71,423.85 344.72,541.86 h 265 c -262.78,-57.89 -466.53,-273.13 -507.46,-541.86 m -108.38,0 H 2720.42 c 0.08,4.69 0.13,9.4 0.13,14.11 0,59.78 -6.93,117.97 -20.01,173.76 h 951.2 c 62.21,-99.09 109.51,-137.98 112.06,-140.04 l 3.75,-3.03 h 1613.63 v 497.06 h 244.4 c -132.4,-136.47 -213.92,-322.61 -213.92,-527.75 0,-4.71 0.04,-9.42 0.13,-14.11 m -2697.48,0 h -102.29 c -40.88,268.73 -244.61,483.97 -507.41,541.86 h 265 c 185.02,-118.01 315.4,-314.13 344.7,-541.86 m 864.68,321.83 -939.47,33.64 c -34.77,68.82 -79.71,131.6 -132.86,186.39 h 986.6 c 28.56,-88.91 58.2,-161.69 85.73,-220.03" style="fill-opacity: 1; fill-rule: nonzero; stroke: none; fill: rgba(14, 31, 44, 0.77);" id="path214"/>
      <path d="m 5417.91,3258.66 h -6.12 c -0.09,4.69 -0.13,9.4 -0.13,14.11 0,205.14 81.52,391.28 213.92,527.75 h 137.05 c -185.01,-118.01 -315.41,-314.13 -344.72,-541.86" style="fill-opacity: 1; fill-rule: nonzero; stroke: none; fill: rgb(166, 179, 184);" id="path216"/>
      <path d="m 2720.42,3258.66 h -6.11 c -29.3,227.73 -159.68,423.85 -344.7,541.86 h 137.05 c 53.15,-54.79 98.09,-117.57 132.86,-186.39 l -27.5,0.98 70,-168.58 h 18.52 c 13.08,-55.79 20.01,-113.98 20.01,-173.76 0,-4.71 -0.05,-9.42 -0.13,-14.11" style="fill-opacity: 1; fill-rule: nonzero; stroke: none; fill: rgb(166, 179, 184);" id="path218"/>
      <path d="M 5518.38,3072.05 H 2613.84 c 3.75,28.44 5.74,57.44 5.74,86.88 v 0 0 0 c 0,0.29 0,0.58 0,0.87 0,0.09 0,0.17 0,0.27 0,0.03 0,0.06 0,0.09 0,0.17 0,0.33 0,0.5 0,0.11 0,0.22 0,0.34 0,0.05 0,0.11 0,0.17 0,0.11 0,0.23 0,0.34 0,0.14 -0.01,0.25 -0.01,0.39 0,0.04 0,0.08 0,0.12 0,0.09 0,0.18 0,0.27 0,0.02 0,0.04 0,0.05 0,0.16 0,0.3 0,0.45 0,0.08 0,0.15 0,0.23 0,0.05 0,0.1 0,0.15 0,0.15 0,0.33 -0.01,0.49 0,0.07 0,0.16 0,0.24 -0.24,32.19 -2.79,63.82 -7.5,94.76 h -0.04 102.29 6.11 2691.37 6.12 102.28 c -4.73,-30.92 -7.28,-62.58 -7.52,-94.75 -0.01,-0.08 -0.01,-0.17 -0.01,-0.25 0,-0.15 0,-0.31 0,-0.47 0,-0.05 0,-0.1 0,-0.15 0,-0.09 0,-0.18 0,-0.27 0,-0.14 0,-0.27 0,-0.4 0,-0.05 0,-0.09 0,-0.14 0,-0.06 -0.01,-0.12 -0.01,-0.18 0,-0.05 0,-0.1 0,-0.15 0,-0.14 0,-0.25 0,-0.39 0,-0.11 0,-0.23 0,-0.35 0,-0.05 0,-0.11 0,-0.17 0,-0.11 0,-0.21 0,-0.33 0,-0.17 0,-0.33 0,-0.5 0,-0.03 0,-0.06 0,-0.09 0,-0.1 0,-0.18 0,-0.27 0,-0.29 0,-0.58 0,-0.87 v 0 0 0 c 0,-29.44 1.96,-58.44 5.73,-86.88" style="fill:#2b333d;fill-opacity:1;fill-rule:nonzero;stroke:none" id="path220"/>
      <path d="M 5353.91,3330.72 H 3777.49 c -10.99,9.98 -47.1,45.24 -93.26,115.81 h 1669.68 v 70.42 l -1744.2,62.44 c -27.89,57.59 -58.34,130.63 -87.82,221.13 h 1832.02 v -469.8" style="fill-opacity: 1; fill-rule: nonzero; stroke: none; fill: rgba(14, 31, 44, 0.77);" id="path222"/>
      <path d="M 5353.91,3446.53 H 3684.23 c -21.5,32.88 -45.19,73.42 -69.52,122.65 -1.66,3.35 -3.33,6.75 -5,10.21 l 1744.2,-62.44 v -70.42 m -1702.17,0 h -951.2 -18.52 l -70,168.58 27.5,-0.98 939.47,-33.64 c 4.23,-8.97 8.41,-17.59 12.53,-25.89 20.9,-42.06 41.25,-77.86 60.22,-108.07" style="fill-opacity: 1; fill-rule: nonzero; stroke: none; fill: rgb(148, 160, 165);" id="path224"/>
      <path d="M 5381.18,3303.46 H 3767.55 l -3.75,3.03 c -2.55,2.06 -49.85,40.95 -112.06,140.04 h 32.49 c 46.16,-70.57 82.27,-105.83 93.26,-115.81 h 1576.42 v 469.8 h 27.27 v -497.06 m -1771.47,275.93 -30.72,1.1 c -27.53,58.34 -57.17,131.12 -85.73,220.03 h 28.63 c 29.48,-90.5 59.93,-163.54 87.82,-221.13" style="fill-opacity: 1; fill-rule: nonzero; stroke: none; fill: rgb(116, 121, 123);" id="path226"/>
      <path d="m 3684.23,3446.53 h -32.49 c -18.97,30.21 -39.32,66.01 -60.22,108.07 -4.12,8.3 -8.3,16.92 -12.53,25.89 l 30.72,-1.1 c 1.67,-3.46 3.34,-6.86 5,-10.21 24.33,-49.23 48.02,-89.77 69.52,-122.65" style="fill-opacity: 1; fill-rule: nonzero; stroke: none; fill: rgb(116, 121, 123);" id="path228"/>
      <path d="m 1305.69,3160.12 c 0,0.02 0,0.04 0,0.07 0,0.02 0,0.04 0,0.06 0,-0.04 0,-0.09 0,-0.13 m 0.01,0.91 c 0,0.05 0,0.11 0,0.15 0,0.05 0,0.09 0,0.13 0,-0.07 0,-0.2 0,-0.28 m 0,0.92 c 0,0.11 0,0.23 0,0.34 0,-0.12 0,-0.23 0,-0.34 m 0.01,1 v 0.04 c 0,0.01 0,0.03 0,0.05 0,-0.02 0,-0.07 0,-0.09 m 7.51,95.71 v 0 c 40.92,268.73 244.67,483.97 507.46,541.86 h 0.27 c -262.9,-57.8 -466.79,-273.05 -507.73,-541.86" style="fill:#17181c;fill-opacity:1;fill-rule:nonzero;stroke:none" id="path230"/>
      <path d="m 1058.66,3124.97 c -0.13,0.11 -0.27,0.23 -0.41,0.34 0.14,-0.11 0.27,-0.23 0.41,-0.34 m -0.53,0.45 c -0.1,0.09 -0.2,0.17 -0.31,0.26 0.11,-0.09 0.21,-0.18 0.31,-0.26 m -0.42,0.35 c -0.28,0.24 -0.56,0.48 -0.83,0.72 0.27,-0.24 0.55,-0.48 0.83,-0.72 m -0.93,0.8 c -0.11,0.1 -0.23,0.2 -0.34,0.3 0.11,-0.1 0.23,-0.2 0.34,-0.3 m -0.42,0.37 c -0.29,0.24 -0.58,0.5 -0.86,0.74 0.28,-0.25 0.57,-0.5 0.86,-0.74 m -0.91,0.78 c -114.134,99.7 -175.872,340.6 -175.872,340.6 l -22.703,156.73 39.746,34.07 -17.043,106.75 v 34.65 h 539.052 c -132.41,-136.47 -213.93,-322.61 -213.93,-527.75 0,-4.71 0.04,-9.42 0.13,-14.11 H 960.02 c 25.906,-49.86 57.81,-98.07 95.43,-130.94 m 250.24,31.21 c 0,0.29 0,0.57 0,0.86 0,-0.29 0,-0.57 0,-0.86 v 0 m 0,1.26 c 0,0.15 0.01,0.3 0.01,0.45 0,-0.13 0,-0.26 -0.01,-0.39 0,-0.02 0,-0.04 0,-0.06 m 0.01,0.99 c 0,0.1 0,0.2 0,0.3 0,-0.06 0,-0.11 0,-0.17 0,-0.04 0,-0.08 0,-0.13 m 0,1.65 c 0.01,0.05 0.01,0.11 0.01,0.16 v -0.04 c 0,-0.04 -0.01,-0.08 -0.01,-0.12 m 7.52,95.83 h -102.27 c 29.32,227.73 159.72,423.85 344.74,541.86 h 264.99 c -262.79,-57.89 -466.54,-273.13 -507.46,-541.86" style="fill-opacity: 1; fill-rule: nonzero; stroke: none; fill: rgba(14, 31, 44, 0.71);" id="path232"/>
      <path d="m 1210.95,3258.66 h -6.12 c -0.09,4.69 -0.13,9.4 -0.13,14.11 0,205.14 81.52,391.28 213.93,527.75 h 137.06 c -185.02,-118.01 -315.42,-314.13 -344.74,-541.86" style="fill-opacity: 1; fill-rule: nonzero; stroke: none; fill: rgb(166, 179, 184);" id="path234"/>
      <path d="m 1311.43,3072.05 h -49.1 l -165.09,34.82 -38.58,18.1 v 0 c -0.14,0.11 -0.27,0.23 -0.41,0.34 v 0 c -0.04,0.04 -0.08,0.07 -0.12,0.11 v 0 c -0.1,0.08 -0.2,0.17 -0.31,0.26 v 0 c -0.03,0.03 -0.08,0.06 -0.11,0.09 v 0 c -0.28,0.24 -0.56,0.48 -0.83,0.72 v 0 c -0.04,0.03 -0.06,0.05 -0.1,0.08 v 0 c -0.11,0.1 -0.23,0.2 -0.34,0.3 v 0 c -0.03,0.02 -0.06,0.04 -0.08,0.07 v 0 c -0.29,0.24 -0.58,0.49 -0.86,0.74 v 0 c -0.03,0.02 -0.03,0.03 -0.05,0.04 v 0 c -37.62,32.87 -69.524,81.08 -95.43,130.94 h 244.81 6.12 102.27 v 0 c -4.76,-31.21 -7.32,-63.13 -7.51,-95.62 0,-0.02 0,-0.04 0,-0.05 0,-0.05 0,-0.11 -0.01,-0.16 0,-0.19 0,-0.35 0,-0.54 0,-0.11 0,-0.23 0,-0.34 0,-0.16 0,-0.31 0,-0.47 0,-0.1 0,-0.2 0,-0.3 0,-0.04 0,-0.1 0,-0.15 0,-0.13 0,-0.25 0,-0.39 0,-0.15 -0.01,-0.3 -0.01,-0.45 0,-0.03 0,-0.05 0,-0.07 0,-0.12 0,-0.22 0,-0.33 0,-0.29 0,-0.57 0,-0.86 v 0 0 0 c 0,-29.44 1.97,-58.44 5.74,-86.88" style="fill:#2b333d;fill-opacity:1;fill-rule:nonzero;stroke:none" id="path236"/>
      <path d="m 4335.62,5035.73 c -49.29,2.15 -120.09,3.43 -201.71,4.1 81.6,-0.67 152.43,-1.94 201.71,-4.1" style="fill:#272e37;fill-opacity:1;fill-rule:nonzero;stroke:none" id="path238"/>
      <path d="m 5267.02,4495.95 -10.37,0.51 10.37,-0.51 v 0 m 0,0 c -2.63,1.96 -5.26,3.91 -7.88,5.86 v 0 c -93.1,69.18 -180.14,129.9 -260.74,183.15 l -0.01,-0.01 c -30.67,20.26 -60.41,39.44 -89.18,57.58 l 1.71,-20.35 c -51.54,32.68 -99.62,61.8 -143.99,87.67 l 6.92,14.83 c -275.27,160.25 -432.45,209.27 -438.07,211 8.41,-2.58 356.25,-111.09 931.24,-539.73 m -348.66,17.36 -283.13,14.11 7.39,15.84 283.13,-14.1 -7.39,-15.85 m -857.7,42.72 -202.41,10.09 7.39,15.84 202.41,-10.08 -7.39,-15.85 m -287.5,14.32 -48.75,2.43 7.39,15.85 48.75,-2.43 -7.39,-15.85 m -180.85,9.01 -166.89,8.32 -16.42,77.22 11.37,24.38 18.29,-86.05 161.04,-8.02 -7.39,-15.85 m -248.9,394.08 -13.24,62.29 c 0,0 15.4,0.21 42.54,0.55 l -7.6,-16.3 c -5.64,-0.07 -10.66,-0.13 -15,-0.19 l 4.67,-21.96 -11.37,-24.39 m 934.27,48.01 c -52.87,1.33 -121.7,2.19 -205.91,2.57 l 7.54,16.16 c 18.64,-0.09 36.87,-0.21 54.6,-0.35 81.62,-0.67 152.42,-1.95 201.71,-4.1 v 0 c -14.94,0.65 -31.87,1.22 -50.48,1.72 l -7.46,-16 m -702.05,0.78 7.59,16.28 c 68.29,0.6 145.2,1.17 223.91,1.53 l -7.57,-16.24 c -78.86,-0.37 -155.86,-0.95 -223.93,-1.57 m 359.29,1.98 7.56,16.21 c 4.21,0 8.39,0.01 12.58,0.01 4.09,0 8.17,0 12.24,0 8.39,0 16.75,0 25.05,-0.01 l -7.55,-16.19 c -5.76,0 -11.59,0 -17.47,0 -10.74,0 -21.56,0 -32.41,-0.02" style="fill:#262028;fill-opacity:1;fill-rule:nonzero;stroke:none" id="path240"/>
      <path d="m 4635.23,4527.42 -574.57,28.61 7.39,15.85 574.57,-28.62 -7.39,-15.84 m 131.7,282.43 c -74.14,43.23 -137.9,77.36 -189.98,103.64 -144.77,73.08 -230.64,101.82 -244.13,106.15 -15.86,0.68 -34.26,1.28 -55.14,1.81 l 7.46,16 c 18.61,-0.5 35.54,-1.07 50.48,-1.72 v 0 c 0,0 0.06,-0.02 0.16,-0.05 5.62,-1.73 162.8,-50.75 438.07,-211 l -6.92,-14.83" style="fill:#2f2733;fill-opacity:1;fill-rule:nonzero;stroke:none" id="path242"/>
      <path d="m 3409,4664.9 -65.59,308.54 11.37,24.39 65.59,-308.55 -11.37,-24.38 m -43.89,355.08 7.6,16.3 c 44.28,0.55 119.8,1.42 210.51,2.23 l -7.59,-16.28 c -92.66,-0.83 -168.79,-1.73 -210.52,-2.25" style="fill:#2f2733;fill-opacity:1;fill-rule:nonzero;stroke:none" id="path244"/>
      <path d="m 5256.65,4496.46 -338.29,16.85 7.39,15.85 1.43,-0.07 1.37,-16.28 328.1,-16.35 m 2.49,5.35 c -93.1,69.18 -180.16,129.9 -260.75,183.14 l 0.01,0.01 c 80.6,-53.25 167.64,-113.97 260.74,-183.15 v 0" style="fill:#2f2733;fill-opacity:1;fill-rule:nonzero;stroke:none" id="path246"/>
      <path d="m 3724.41,4572.78 -132.1,6.58 7.39,15.85 132.1,-6.58 -7.39,-15.85 m 75.15,451.02 7.57,16.24 c 44.95,0.2 90.5,0.34 135.35,0.38 l -7.56,-16.21 c -44.86,-0.04 -90.4,-0.19 -135.36,-0.41" style="fill:#2f2733;fill-opacity:1;fill-rule:nonzero;stroke:none" id="path248"/>
      <path d="m 3858.25,4566.12 -85.09,4.23 7.39,15.85 85.09,-4.24 -7.39,-15.84 m 213.52,457.9 c -27.37,0.12 -56.36,0.19 -86.97,0.21 l 7.55,16.19 c 29.64,-0.03 58.76,-0.11 86.96,-0.24 l -7.54,-16.16" style="fill:#2f2733;fill-opacity:1;fill-rule:nonzero;stroke:none" id="path250"/>
      <path d="m 5267.02,4495.95 -1841.6,91.73 -95.26,448.05 c 0,0 330.02,4.57 624.9,4.7 -4.19,0 -8.37,-0.01 -12.58,-0.01 -44.85,-0.04 -90.4,-0.18 -135.35,-0.38 -78.71,-0.36 -155.62,-0.93 -223.91,-1.53 -90.71,-0.81 -166.23,-1.68 -210.51,-2.23 -27.14,-0.34 -42.54,-0.55 -42.54,-0.55 v 0 l 95.25,-448.05 1841.6,-91.73 v 0" style="fill:#17171a;fill-opacity:1;fill-rule:nonzero;stroke:none" id="path252"/>
      <path d="m 5267.02,4495.95 -10.37,0.51 -328.1,16.35 -1.37,16.28 287.09,-14.3 c -110.85,81.14 -212.46,149.77 -303.35,207.39 l -1.71,20.35 c 28.77,-18.14 58.51,-37.32 89.18,-57.58 80.59,-53.24 167.65,-113.96 260.75,-183.14 2.62,-1.95 5.25,-3.9 7.88,-5.86 v 0" style="fill:#272e37;fill-opacity:1;fill-rule:nonzero;stroke:none" id="path254"/>
      <path d="m 3287.83,4588.84 v 0 l -0.75,9.34 -4.29,-9.21 -286.23,7.45 7.46,16.01 266.22,-6.93 -32.63,410.24 c -14.95,-0.29 -30.33,-0.66 -46.04,-1.11 l 7.59,16.27 c -175.65,-4.72 -396.73,-19.03 -604.25,-35.05 l -7.83,-16.79 c -74.54,-5.78 -147.22,-11.77 -215.31,-17.6 l 7.86,16.86 c -31.28,-2.67 -61.61,-5.31 -90.75,-7.88 l -7.87,-16.88 c -17.84,-1.58 -35.2,-3.14 -52.04,-4.65 l 7.87,16.88 c -52.65,-4.73 -100.35,-9.16 -141.23,-13.02 l -7.88,-16.91 c -71.94,-6.8 -121.24,-11.72 -137.04,-13.31 l -162.91,-151.28 18.05,38.73 -191.29,-177.64 -0.14,0.01 329.26,305.75 c 0,0 851.47,86.79 1308.89,94.08 l 35.28,-443.36 m -872.13,22.69 -204.63,5.32 7.47,16 204.62,-5.32 -7.46,-16 m -290.66,7.56 -49.27,1.28 7.46,16 49.28,-1.28 -7.47,-16 m -182.81,4.75 -220.53,5.74 7.46,16 220.53,-5.74 -7.46,-16" style="fill:#262028;fill-opacity:1;fill-rule:nonzero;stroke:none" id="path256"/>
      <path d="m 2996.56,4596.42 -580.86,15.11 7.46,16 580.86,-15.1 -7.46,-16.01 m -409.48,382.64 7.83,16.79 c 207.52,16.02 428.6,30.33 604.25,35.05 l -7.59,-16.27 c -176.02,-5.01 -397.36,-19.5 -604.49,-35.57" style="fill:#2f2733;fill-opacity:1;fill-rule:nonzero;stroke:none" id="path258"/>
      <path d="m 1721.7,4629.58 -107.16,2.78 191.29,177.64 -18.05,-38.73 -133.28,-123.75 74.66,-1.94 -7.46,-16" style="fill:#2f2733;fill-opacity:1;fill-rule:nonzero;stroke:none" id="path260"/>
      <path d="m 3287.83,4588.84 -5.04,0.13 4.29,9.21 0.74,-9.34" style="fill:#2f2733;fill-opacity:1;fill-rule:nonzero;stroke:none" id="path262"/>
      <path d="m 2075.77,4620.37 -133.54,3.47 7.46,16 133.54,-3.47 -7.46,-16 m 11.96,315.49 7.88,16.91 c 40.88,3.86 88.58,8.29 141.23,13.02 l -7.87,-16.88 c -53,-4.78 -100.7,-9.21 -141.24,-13.05" style="fill:#2f2733;fill-opacity:1;fill-rule:nonzero;stroke:none" id="path264"/>
      <path d="m 2211.07,4616.85 -86.03,2.24 7.47,16 86.03,-2.24 -7.47,-16 m 69.94,336.71 7.87,16.88 c 29.14,2.57 59.47,5.21 90.75,7.88 l -7.86,-16.86 c -31.31,-2.68 -61.67,-5.33 -90.76,-7.9" style="fill:#2f2733;fill-opacity:1;fill-rule:nonzero;stroke:none" id="path266"/>
      <path d="m 4824.67,4608.33 v 158.08 c 0,0 2.25,25.53 48.65,25.53 0,0 101.84,-11.78 135.8,-58.92 0,0 47.51,-82.48 59.97,-177.72 0,0 -12.46,-40.26 -40.75,-38.28 0,0 -102.96,5.88 -150.49,29.45 0,0 -53.18,30.43 -53.18,61.86" style="fill-opacity: 1; fill-rule: nonzero; stroke: none; fill: rgb(69, 80, 88);" id="path268"/>
      <path d="m 4873.32,4791.94 c -4.45,0 -8.52,-0.23 -12.19,-0.67 28.68,-34.76 110.83,-143.16 134.27,-271.38 19.44,-2.1 32.94,-2.87 32.94,-2.87 28.29,-1.98 40.75,38.28 40.75,38.28 -12.46,95.25 -59.97,177.72 -59.97,177.72 -33.96,47.14 -135.8,58.92 -135.8,58.92" style="fill-opacity: 1; fill-rule: nonzero; stroke: none; fill: rgb(131, 143, 147);" id="path270"/>
    </g>
  </g>
</svg>