<svg width="14" height="21" viewBox="0 0 14 21" fill="none" xmlns="http://www.w3.org/2000/svg">
<path d="M11.82 13.485C11.4551 13.3016 11.0106 13.4439 10.82 13.805C10.6438 14.1729 10.7895 14.6142 11.15 14.805C12.03 15.255 12.53 15.805 12.53 16.335C12.53 17.465 10.17 18.725 7.01 18.725C3.85 18.725 1.48 17.475 1.48 16.375C1.48 15.855 1.98 15.295 2.86 14.845C3.1239 14.7392 3.30528 14.4932 3.3284 14.2098C3.35151 13.9265 3.2124 13.6544 2.96914 13.5072C2.72588 13.36 2.4203 13.363 2.18 13.515C0.965898 13.9726 0.119478 15.083 0 16.375C0 18.595 3 20.265 7 20.265C11 20.265 14 18.595 14 16.375C13.8916 15.0718 13.0432 13.9472 11.82 13.485Z" fill="black"/>
<path fill-rule="evenodd" clip-rule="evenodd" d="M6.25 16.815V12.495C2.95689 12.0982 0.542527 9.20529 0.741265 5.89433C0.940003 2.58336 3.68308 0 7 0C10.3169 0 13.06 2.58336 13.2587 5.89433C13.4575 9.20529 11.0431 12.0982 7.75 12.495V16.815C7.75 17.2292 7.41421 17.565 7 17.565C6.58579 17.565 6.25 17.2292 6.25 16.815ZM11.4242 4.44113C10.6818 2.65406 8.93515 1.49094 7 1.49498C4.36789 1.50048 2.2355 3.63287 2.23 6.26498C2.22596 8.20013 3.38908 9.94678 5.17615 10.6892C6.96322 11.4316 9.02161 11.0233 10.39 9.65494C11.7583 8.28659 12.1666 6.2282 11.4242 4.44113Z" fill="black"/>
<path d="M4.59 7.37498C5.00422 7.37498 5.34 7.0392 5.34 6.62498C5.34 5.47623 6.27125 4.54498 7.42 4.54498C7.83421 4.54498 8.17 4.2092 8.17 3.79498C8.17 3.38077 7.83421 3.04498 7.42 3.04498C6.46787 3.04763 5.55579 3.4284 4.88441 4.10354C4.21303 4.77867 3.83735 5.69285 3.84 6.64498C3.84264 6.84125 3.92314 7.02843 4.06379 7.16533C4.20445 7.30224 4.39374 7.37765 4.59 7.37498Z" fill="black"/>
</svg>
