<svg width="20" height="20" viewBox="0 0 20 20" fill="none" xmlns="http://www.w3.org/2000/svg">
<path fill-rule="evenodd" clip-rule="evenodd" d="M7.49994 0.220237C8.18023 0.0739942 8.8741 0.000249129 9.56993 0.000237184C12.3518 -0.0133657 15.0031 1.1792 16.8385 3.26971C18.6739 5.36021 19.5134 8.14351 19.1399 10.9002C18.5399 15.5002 13.9999 19.2202 9.35993 19.2202H2.69994C2.13381 19.2205 1.60916 18.9233 1.31819 18.4377C1.02722 17.9521 1.0127 17.3493 1.27994 16.8502L1.54994 16.3302C1.81866 15.8294 1.79959 15.2232 1.49994 14.7402C-0.178363 12.1018 -0.466506 8.81139 0.727681 5.92145C1.92187 3.03152 4.44873 0.904287 7.49994 0.220237ZM9.27993 17.7102C13.3566 17.6459 16.8235 14.7185 17.5699 10.7102C17.909 8.38731 17.2106 6.03269 15.6599 4.27024C14.1239 2.51251 11.9042 1.50291 9.56993 1.50024C8.97873 1.50137 8.38913 1.56167 7.80993 1.68024C5.23508 2.25314 3.09972 4.04251 2.08517 6.47742C1.07063 8.91233 1.30366 11.6885 2.70993 13.9202C3.30823 14.8601 3.35032 16.0504 2.81993 17.0302L2.54993 17.5402C2.52795 17.5736 2.52795 17.6169 2.54993 17.6502C2.58993 17.7102 2.64993 17.7102 2.64993 17.7102H9.27993Z" fill="black"/>
</svg>
