<svg width="20" height="17" viewBox="0 0 20 17" fill="none" xmlns="http://www.w3.org/2000/svg">
<path fill-rule="evenodd" clip-rule="evenodd" d="M1.47021 0.25H2.47021L2.52021 0.26C3.90637 0.286888 5.11755 1.20334 5.52022 2.53L5.72021 3.22H16.1502C17.0712 3.22419 17.9458 3.62503 18.5502 4.32C19.1529 5.01937 19.4196 5.94735 19.2802 6.86L18.6802 11C18.4804 12.5869 17.1395 13.7825 15.5402 13.8H9.66021C8.25551 13.7948 7.01845 12.8741 6.61021 11.53L4.08021 3C3.88648 2.26818 3.22722 1.75633 2.47021 1.75H1.47021C1.056 1.75 0.720215 1.41421 0.720215 1C0.720215 0.585786 1.056 0.25 1.47021 0.25ZM8.05021 11.05C8.26249 11.762 8.91724 12.25 9.66021 12.25H15.5402C16.3679 12.241 17.0688 11.6372 17.2002 10.82L17.8002 6.67C17.8819 6.18693 17.7487 5.69227 17.4354 5.31558C17.1222 4.93889 16.6601 4.71772 16.1702 4.71H6.17021L8.05021 11.05Z" fill="black"/>
<path d="M9.43021 15C8.87793 15 8.43021 15.4477 8.43021 16C8.43021 16.5523 8.87793 17 9.43021 17C9.9825 17 10.4302 16.5523 10.4302 16C10.4302 15.4477 9.9825 15 9.43021 15Z" fill="black"/>
<path d="M15.4302 15C14.8779 15 14.4302 15.4477 14.4302 16C14.4302 16.5523 14.8779 17 15.4302 17C15.9825 17 16.4302 16.5523 16.4302 16C16.4302 15.4477 15.9825 15 15.4302 15Z" fill="black"/>
</svg>
