<svg width="20" height="18" viewBox="0 0 20 18" fill="none" xmlns="http://www.w3.org/2000/svg">
<path d="M18.6802 11.4001L19.2802 7.26012L19.2402 7.22012C19.3734 6.30902 19.1052 5.38491 18.5048 4.68674C17.9045 3.98858 17.031 3.58491 16.1102 3.58012H5.68021L5.47021 2.89012C5.07028 1.56156 3.85746 0.643863 2.47021 0.620117H1.47021C1.056 0.620117 0.720215 0.955904 0.720215 1.37012C0.720215 1.78433 1.056 2.12012 1.47021 2.12012H2.47021C3.21319 2.1201 3.86794 2.60812 4.08021 3.32012L6.61021 11.8501C7.01845 13.1942 8.25551 14.1149 9.66021 14.1201H15.5302C17.1069 14.1133 18.4437 12.959 18.6802 11.4001Z" fill="black"/>
<path d="M9.43018 15.3801C8.87789 15.3801 8.43018 15.8278 8.43018 16.3801C8.43018 16.9324 8.87789 17.3801 9.43018 17.3801C9.98246 17.3801 10.4302 16.9324 10.4302 16.3801C10.4302 15.8278 9.98246 15.3801 9.43018 15.3801Z" fill="black"/>
<path d="M15.4302 15.3801C14.8779 15.3801 14.4302 15.8278 14.4302 16.3801C14.4302 16.9324 14.8779 17.3801 15.4302 17.3801C15.9825 17.3801 16.4302 16.9324 16.4302 16.3801C16.4302 15.8278 15.9825 15.3801 15.4302 15.3801Z" fill="black"/>
</svg>
