<svg width="19" height="20" viewBox="0 0 19 20" fill="none" xmlns="http://www.w3.org/2000/svg">
<path fill-rule="evenodd" clip-rule="evenodd" d="M17.9382 5.66945C16.512 2.24481 13.1704 0.0101595 9.46066 0.000250922C5.46246 -0.0208034 1.90737 2.54018 0.661047 6.33922C-0.585272 10.1383 0.761902 14.3075 3.99559 16.6589C7.22927 19.0104 11.6107 19.0069 14.8407 16.6503L17.7207 19.5303C18.0135 19.8227 18.4878 19.8227 18.7807 19.5303C19.0731 19.2374 19.0731 18.7631 18.7807 18.4703L15.9907 15.6803C18.5968 13.0401 19.3644 9.09409 17.9382 5.66945ZM16.6011 12.1692C15.4036 15.0549 12.5849 16.9343 9.46066 16.9303V16.8903C5.22037 16.8848 1.77812 13.4605 1.75066 9.22025C1.74662 6.09599 3.62605 3.27729 6.51172 2.07982C9.39739 0.882348 12.7203 1.5422 14.9295 3.75139C17.1387 5.96058 17.7986 9.28352 16.6011 12.1692Z" fill="black"/>
</svg>
