<svg width="20" height="17" viewBox="0 0 20 17" fill="none" xmlns="http://www.w3.org/2000/svg">
<path fill-rule="evenodd" clip-rule="evenodd" d="M20 11.8182C20 14.3286 17.9649 16.3636 15.4545 16.3636H4.54545C2.03507 16.3636 0 14.3286 0 11.8182V4.54545C0 2.03507 2.03507 0 4.54545 0H15.4545C17.9649 0 20 2.03507 20 4.54545V11.8182ZM4.54545 1.62727H15.4545C17.0662 1.62727 18.3727 2.93379 18.3727 4.54545V5.45455H15.4545C13.9483 5.45455 12.7273 6.67559 12.7273 8.18182C12.7273 9.68805 13.9483 10.9091 15.4545 10.9091H18.3727V11.8182C18.3727 13.4298 17.0662 14.7364 15.4545 14.7364H4.54545C2.93379 14.7364 1.62727 13.4298 1.62727 11.8182V4.54545C1.62727 2.93379 2.93379 1.62727 4.54545 1.62727ZM18.3727 9.28182V7.08182H15.4545C14.847 7.08182 14.3545 7.5743 14.3545 8.18182C14.3545 8.78933 14.847 9.28182 15.4545 9.28182H18.3727Z" fill="black"/>
</svg>
